<mxfile host="Electron" modified="2023-05-31T15:40:05.155Z" agent="Mozilla/5.0 (Windows NT 10.0; Win64; x64) AppleWebKit/537.36 (KHTML, like Gecko) draw.io/21.2.8 Chrome/112.0.5615.165 Electron/24.2.0 Safari/537.36" etag="WOPnVnOBaHG5-IjRQKEX" version="21.2.8" type="device">
  <diagram name="Page-1" id="NtTuuyqRF3t-MB-Bj4w4">
    <mxGraphModel dx="549" dy="414" grid="1" gridSize="10" guides="1" tooltips="1" connect="1" arrows="1" fold="1" page="1" pageScale="1" pageWidth="850" pageHeight="1100" math="0" shadow="0">
      <root>
        <mxCell id="0" />
        <mxCell id="1" parent="0" />
        <mxCell id="-cpkeehttCEZ3qrcgFwI-2" style="edgeStyle=orthogonalEdgeStyle;rounded=0;orthogonalLoop=1;jettySize=auto;html=1;" edge="1" parent="1" source="-cpkeehttCEZ3qrcgFwI-1" target="-cpkeehttCEZ3qrcgFwI-3">
          <mxGeometry relative="1" as="geometry">
            <mxPoint x="165" y="170" as="targetPoint" />
          </mxGeometry>
        </mxCell>
        <mxCell id="-cpkeehttCEZ3qrcgFwI-1" value="start" style="ellipse;whiteSpace=wrap;html=1;" vertex="1" parent="1">
          <mxGeometry x="120" y="60" width="90" height="50" as="geometry" />
        </mxCell>
        <mxCell id="-cpkeehttCEZ3qrcgFwI-6" style="edgeStyle=orthogonalEdgeStyle;rounded=0;orthogonalLoop=1;jettySize=auto;html=1;" edge="1" parent="1" source="-cpkeehttCEZ3qrcgFwI-3" target="-cpkeehttCEZ3qrcgFwI-7">
          <mxGeometry relative="1" as="geometry">
            <mxPoint x="165" y="310" as="targetPoint" />
          </mxGeometry>
        </mxCell>
        <mxCell id="-cpkeehttCEZ3qrcgFwI-3" value="arr" style="shape=hexagon;perimeter=hexagonPerimeter2;whiteSpace=wrap;html=1;fixedSize=1;" vertex="1" parent="1">
          <mxGeometry x="105" y="170" width="120" height="60" as="geometry" />
        </mxCell>
        <mxCell id="-cpkeehttCEZ3qrcgFwI-8" style="edgeStyle=orthogonalEdgeStyle;rounded=0;orthogonalLoop=1;jettySize=auto;html=1;" edge="1" parent="1" source="-cpkeehttCEZ3qrcgFwI-7" target="-cpkeehttCEZ3qrcgFwI-9">
          <mxGeometry relative="1" as="geometry">
            <mxPoint x="165" y="400" as="targetPoint" />
          </mxGeometry>
        </mxCell>
        <mxCell id="-cpkeehttCEZ3qrcgFwI-7" value="len = len(arr)" style="rounded=0;whiteSpace=wrap;html=1;" vertex="1" parent="1">
          <mxGeometry x="105" y="280" width="120" height="60" as="geometry" />
        </mxCell>
        <mxCell id="-cpkeehttCEZ3qrcgFwI-10" style="edgeStyle=orthogonalEdgeStyle;rounded=0;orthogonalLoop=1;jettySize=auto;html=1;" edge="1" parent="1" source="-cpkeehttCEZ3qrcgFwI-9" target="-cpkeehttCEZ3qrcgFwI-11">
          <mxGeometry relative="1" as="geometry">
            <mxPoint x="165" y="560" as="targetPoint" />
          </mxGeometry>
        </mxCell>
        <mxCell id="-cpkeehttCEZ3qrcgFwI-12" value="Yes" style="edgeLabel;html=1;align=center;verticalAlign=middle;resizable=0;points=[];" vertex="1" connectable="0" parent="-cpkeehttCEZ3qrcgFwI-10">
          <mxGeometry x="-0.26" y="1" relative="1" as="geometry">
            <mxPoint as="offset" />
          </mxGeometry>
        </mxCell>
        <mxCell id="-cpkeehttCEZ3qrcgFwI-13" style="edgeStyle=orthogonalEdgeStyle;rounded=0;orthogonalLoop=1;jettySize=auto;html=1;" edge="1" parent="1" source="-cpkeehttCEZ3qrcgFwI-9" target="-cpkeehttCEZ3qrcgFwI-14">
          <mxGeometry relative="1" as="geometry">
            <mxPoint x="330" y="520" as="targetPoint" />
          </mxGeometry>
        </mxCell>
        <mxCell id="-cpkeehttCEZ3qrcgFwI-9" value="len &amp;gt; 0 ?" style="rhombus;whiteSpace=wrap;html=1;" vertex="1" parent="1">
          <mxGeometry x="125" y="400" width="80" height="80" as="geometry" />
        </mxCell>
        <mxCell id="-cpkeehttCEZ3qrcgFwI-15" style="edgeStyle=orthogonalEdgeStyle;rounded=0;orthogonalLoop=1;jettySize=auto;html=1;" edge="1" parent="1" source="-cpkeehttCEZ3qrcgFwI-11" target="-cpkeehttCEZ3qrcgFwI-16">
          <mxGeometry relative="1" as="geometry">
            <mxPoint x="165" y="640" as="targetPoint" />
          </mxGeometry>
        </mxCell>
        <mxCell id="-cpkeehttCEZ3qrcgFwI-11" value="print arr" style="shape=parallelogram;perimeter=parallelogramPerimeter;whiteSpace=wrap;html=1;fixedSize=1;" vertex="1" parent="1">
          <mxGeometry x="105" y="530" width="120" height="60" as="geometry" />
        </mxCell>
        <mxCell id="-cpkeehttCEZ3qrcgFwI-17" style="edgeStyle=orthogonalEdgeStyle;rounded=0;orthogonalLoop=1;jettySize=auto;html=1;entryX=1;entryY=0.5;entryDx=0;entryDy=0;" edge="1" parent="1" source="-cpkeehttCEZ3qrcgFwI-14" target="-cpkeehttCEZ3qrcgFwI-16">
          <mxGeometry relative="1" as="geometry">
            <Array as="points">
              <mxPoint x="320" y="660" />
            </Array>
          </mxGeometry>
        </mxCell>
        <mxCell id="-cpkeehttCEZ3qrcgFwI-14" value="print empty" style="shape=parallelogram;perimeter=parallelogramPerimeter;whiteSpace=wrap;html=1;fixedSize=1;" vertex="1" parent="1">
          <mxGeometry x="260" y="510" width="120" height="60" as="geometry" />
        </mxCell>
        <mxCell id="-cpkeehttCEZ3qrcgFwI-16" value="end" style="ellipse;whiteSpace=wrap;html=1;" vertex="1" parent="1">
          <mxGeometry x="127.5" y="640" width="75" height="40" as="geometry" />
        </mxCell>
      </root>
    </mxGraphModel>
  </diagram>
</mxfile>
